<svg xmlns="http://www.w3.org/2000/svg" viewBox="0 0 520 126" role="img" aria-labelledby="title desc">
  <title id="title">Rejuveta Heritage &amp; Conservation logo</title>
  <desc id="desc">A refined Indian heritage arch and lotus emblem with wordmark.</desc>
  <defs>
    <linearGradient id="archGold" x1="22" y1="14" x2="122" y2="112" gradientUnits="userSpaceOnUse">
      <stop stop-color="#d5a650"/>
      <stop offset="0.48" stop-color="#b67530"/>
      <stop offset="1" stop-color="#7d4c25"/>
    </linearGradient>
    <linearGradient id="deepGreen" x1="20" y1="16" x2="116" y2="108" gradientUnits="userSpaceOnUse">
      <stop stop-color="#315846"/>
      <stop offset="1" stop-color="#172f27"/>
    </linearGradient>
  </defs>
  <g>
    <circle cx="68" cy="63" r="52" fill="#fbfaf5" stroke="#315846" stroke-width="4"/>
    <path d="M33 96V59c0-25 15.5-42 35-42s35 17 35 42v37" fill="none" stroke="url(#deepGreen)" stroke-width="9" stroke-linecap="round"/>
    <path d="M48 96V61c0-15 8.8-25 20-25s20 10 20 25v35" fill="none" stroke="url(#archGold)" stroke-width="6" stroke-linecap="round"/>
    <path d="M28 96h80" fill="none" stroke="#315846" stroke-width="8" stroke-linecap="round"/>
    <path d="M68 73c-10-6-16-14-17-25 9 2 16 8 17 19 1-11 8-17 17-19-1 11-7 19-17 25Z" fill="#b67530"/>
    <path d="M52 84c7-7 16-10 16-10s9 3 16 10" fill="none" stroke="#315846" stroke-width="4" stroke-linecap="round"/>
    <path d="M48 104h40" fill="none" stroke="#b67530" stroke-width="4" stroke-linecap="round"/>
  </g>
  <g>
    <text x="142" y="50" fill="#15231e" font-family="Georgia, 'Times New Roman', serif" font-size="31" font-weight="700">Rejuveta Heritage</text>
    <text x="142" y="82" fill="#315846" font-family="Inter, Segoe UI, Arial, sans-serif" font-size="20" font-weight="800">&amp; Conservation</text>
    <path d="M142 92h164" stroke="#b67530" stroke-width="3" stroke-linecap="round"/>
    <text x="142" y="113" fill="#5c6861" font-family="Inter, Segoe UI, Arial, sans-serif" font-size="13" font-weight="650">Reviving Heritage. Preserving Legacy.</text>
  </g>
</svg>
